<?xml version="1.0" encoding="UTF-8"?>
<!DOCTYPE svg PUBLIC "-//W3C//DTD SVG 1.1//EN" "http://www.w3.org/Graphics/SVG/1.1/DTD/svg11.dtd">
<!-- Creator: CorelDRAW 2019 (64-Bit) -->
<svg xmlns="http://www.w3.org/2000/svg" xml:space="preserve" width="106.252mm" height="95.6758mm" version="1.1" style="shape-rendering:geometricPrecision; text-rendering:geometricPrecision; image-rendering:optimizeQuality; fill-rule:evenodd; clip-rule:evenodd"
viewBox="0 0 11256.89 10136.42"
 xmlns:xlink="http://www.w3.org/1999/xlink">
 <defs>
  <style type="text/css">
   <![CDATA[
    .fil0 {fill:#009846;fill-rule:nonzero}
   ]]>
  </style>
 </defs>
 <g id="Layer_x0020_1">
  <metadata id="CorelCorpID_0Corel-Layer"/>
  <path class="fil0" d="M6695.5 6762.07c-346.78,640.19 -720.23,1480.45 -720.23,2214.01 0,573.5 240.07,1160.35 906.95,1160.35 573.5,0 1973.93,-720.22 3894.53,-3200.97 106.7,-133.37 146.7,-200.06 146.7,-306.75 0,-120.04 -26.67,-280.09 -53.34,-600.18 -386.79,480.15 -2133.99,2280.69 -2667.49,2280.69 -293.42,0 -346.77,-306.75 -346.77,-546.83 0,-53.35 26.68,-320.1 413.46,-1093.68 1280.38,-2534.1 2987.58,-4254.62 2987.58,-5094.88 0,-640.2 -866.93,-1267.06 -1093.66,-1267.06 -306.77,0 -1307.07,760.23 -1707.2,1026.98 -333.43,226.73 -1467.11,1333.74 -4027.89,4414.68l-26.68 -26.68c1720.52,-3027.58 2240.68,-3907.85 2320.7,-4974.85 40.02,-493.48 -400.11,-746.89 -853.59,-746.89 -1107,0 -2760.83,933.62 -3707.8,1453.78l-26.67 -26.68c653.52,-626.86 720.22,-840.25 720.22,-853.59 0,-66.69 -80.03,-106.7 -146.71,-106.7 -400.12,0 -2707.49,1720.52 -2707.49,3321.01 0,160.04 -13.34,586.84 240.07,586.84 120.04,0 293.42,-93.36 400.12,-173.39 2240.67,-1480.45 3707.8,-2200.67 4161.26,-2200.67 173.39,0 213.4,106.7 213.4,280.09 0,733.56 -2560.78,5201.59 -3107.62,6041.84 -40.01,66.68 -133.37,213.4 -133.37,293.43 0,306.75 760.23,840.25 1053.66,840.25 173.39,0 333.43,-240.07 426.79,-373.45 706.89,-946.95 2120.65,-2867.54 2507.43,-3307.67 946.95,-1067 2053.97,-2147.32 3174.3,-3214.31l26.68 26.67 -2267.35 4174.61z"/>
 </g>
</svg>
