<?xml version="1.0" encoding="UTF-8"?>
<svg id="OBJECTS" xmlns="http://www.w3.org/2000/svg" xmlns:xlink="http://www.w3.org/1999/xlink" viewBox="0 0 500 500">
  <defs>
    <style>
      .cls-1 {
        letter-spacing: 0em;
      }

      .cls-2 {
        fill: #1a0168;
      }

      .cls-3 {
        letter-spacing: .01em;
      }

      .cls-4 {
        font-size: 20px;
      }

      .cls-4, .cls-5, .cls-6, .cls-7, .cls-8, .cls-9, .cls-10 {
        fill: #fff;
      }

      .cls-4, .cls-5, .cls-11 {
        font-family: Montserrat-Medium, 'Montserrat Medium';
        font-weight: 500;
      }

      .cls-5 {
        font-size: 12px;
      }

      .cls-12, .cls-13 {
        fill: #7f00ff;
      }

      .cls-14 {
        fill: #f8f8f6;
      }

      .cls-15 {
        fill: url(#radial-gradient);
      }

      .cls-16 {
        fill: none;
        stroke: #7f00ff;
        stroke-linecap: round;
        stroke-linejoin: round;
      }

      .cls-17 {
        letter-spacing: -.03em;
      }

      .cls-7 {
        filter: url(#drop-shadow-1);
      }

      .cls-8 {
        font-size: 4px;
      }

      .cls-8, .cls-10 {
        font-family: Montserrat-Light, 'OZXWC L+ Montserrat';
        font-weight: 300;
      }

      .cls-11 {
        font-size: 6.44px;
      }

      .cls-18 {
        letter-spacing: 0em;
      }

      .cls-19 {
        fill: url(#radial-gradient-2);
      }

      .cls-20 {
        letter-spacing: 0em;
      }

      .cls-21 {
        fill: #9cf29c;
      }

      .cls-21, .cls-22 {
        letter-spacing: .2em;
      }

      .cls-22 {
        fill: #f75959;
      }

      .cls-9 {
        filter: url(#drop-shadow-2);
      }

      .cls-10 {
        font-size: 5px;
      }

      .cls-13 {
        letter-spacing: .2em;
      }

      .cls-23 {
        fill: #bcbcbc;
      }

      .cls-24 {
        letter-spacing: -.01em;
      }

      .cls-25 {
        letter-spacing: 0em;
      }
    </style>
    <filter id="drop-shadow-1" x="43.91" y="53.91" width="217" height="407" filterUnits="userSpaceOnUse">
      <feOffset dx="7.51" dy="7.51"/>
      <feGaussianBlur result="blur" stdDeviation="5.36"/>
      <feFlood flood-color="#424347" flood-opacity=".4"/>
      <feComposite in2="blur" operator="in"/>
      <feComposite in="SourceGraphic"/>
    </filter>
    <radialGradient id="radial-gradient" cx="224.33" cy="466.33" fx="224.33" fy="466.33" r="493.22" gradientUnits="userSpaceOnUse">
      <stop offset="0" stop-color="#23007a"/>
      <stop offset="1" stop-color="#4a00e0"/>
    </radialGradient>
    <filter id="drop-shadow-2" x="263.91" y="53.91" width="217" height="407" filterUnits="userSpaceOnUse">
      <feOffset dx="7.51" dy="7.51"/>
      <feGaussianBlur result="blur-2" stdDeviation="5.36"/>
      <feFlood flood-color="#424347" flood-opacity=".4"/>
      <feComposite in2="blur-2" operator="in"/>
      <feComposite in="SourceGraphic"/>
    </filter>
    <radialGradient id="radial-gradient-2" cx="444.33" fx="444.33" r="493.22" xlink:href="#radial-gradient"/>
  </defs>
  <g>
    <g>
      <rect class="cls-7" x="52.73" y="62.59" width="183.08" height="373.49" rx="21.04" ry="21.04"/>
      <path class="cls-15" d="M225.52,83.63v331.41c0,5.92-4.82,10.74-10.74,10.74H73.77c-5.93,0-10.74-4.81-10.74-10.74V83.62c0-5.93,4.81-10.73,10.74-10.73h26.27c.32,0,.65.02.96.07,2.45.32,4.6,1.86,5.67,4.14.85,1.82,2.19,3.3,3.81,4.34,1.63,1.03,3.54,1.61,5.55,1.61h56.5c4.01,0,7.65-2.32,9.36-5.95.6-1.28,1.55-2.34,2.7-3.07s2.51-1.14,3.93-1.14h26.26c5.91,0,10.74,4.83,10.74,10.74Z"/>
      <g>
        <path class="cls-23" d="M153.81,78.14h-24.81c-.89,0-1.61-.72-1.61-1.61h0c0-.89.72-1.61,1.61-1.61h24.81c.89,0,1.61.72,1.61,1.61h0c0,.89-.72,1.61-1.61,1.61Z"/>
        <circle class="cls-23" cx="162.62" cy="76.5" r="1.54"/>
      </g>
    </g>
    <path class="cls-2" d="M101,72.96v352.82h-27.23c-5.93,0-10.74-4.81-10.74-10.74V83.62c0-5.93,4.81-10.73,10.74-10.73h26.27c.32,0,.65.02.96.07Z"/>
    <g>
      <g>
        <rect class="cls-6" x="204.11" y="402.08" width="1.7" height="7" transform="translate(636.69 547.45) rotate(135)"/>
        <rect class="cls-6" x="204.11" y="405.83" width="1.7" height="7" transform="translate(60.45 843.71) rotate(-135)"/>
      </g>
      <g>
        <g>
          <path class="cls-14" d="M214.21,82.97h-6.48c-.1,0-.17-.08-.17-.17v-3.04c0-.1.08-.17.17-.17h6.48c.1,0,.17.08.17.17v3.04c0,.1-.08.17-.17.17ZM207.91,82.63h6.13v-2.69h-6.13v2.69Z"/>
          <rect class="cls-14" x="208.15" y="80.2" width="4.38" height="2.16"/>
          <rect class="cls-14" x="214.27" y="80.55" width=".42" height="1.45"/>
        </g>
        <g>
          <path class="cls-14" d="M202.47,82c0,.54-.43.97-.97.97s-.97-.43-.97-.97.43-.97.97-.97.97.43.97.97Z"/>
          <path class="cls-14" d="M202.75,81.06c-.08,0-.16-.03-.22-.09-.2-.19-.54-.43-1.03-.43-.38,0-.74.15-1.02.42-.12.12-.32.12-.44,0-.12-.12-.12-.32,0-.44.79-.77,2.12-.77,2.92,0,.12.12.13.32,0,.44-.06.06-.14.09-.22.09Z"/>
          <path class="cls-14" d="M203.5,80.3c-.08,0-.16-.03-.22-.09-.47-.48-1.1-.74-1.78-.74s-1.3.26-1.77.73c-.12.12-.32.12-.44,0-.12-.12-.12-.32,0-.44.59-.59,1.38-.91,2.21-.91s1.64.33,2.22.92c.12.12.12.32,0,.44-.06.06-.14.09-.22.09Z"/>
        </g>
        <g>
          <rect class="cls-14" x="189.31" y="80.62" width="1.48" height="2.35"/>
          <rect class="cls-14" x="191.14" y="79.73" width="1.48" height="3.24"/>
          <rect class="cls-14" x="192.98" y="78.92" width="1.48" height="4.05"/>
        </g>
      </g>
      <g>
        <rect class="cls-12" x="112.47" y="113" width="101.12" height="39"/>
        <rect class="cls-2" x="106.75" y="113" width="54.02" height="39"/>
        <g>
          <g>
            <path class="cls-6" d="M178.21,129.78c.89,0,1.47.43,1.47,1.23,0,1.14-1.13,1.21-1.13,2.16h-.72c0-1.16.98-1.18.98-2.01,0-.38-.28-.57-.69-.57-.44,0-.7.24-.73.72h-.74c.02-.96.61-1.52,1.55-1.52ZM178.68,134.38c0,.3-.21.53-.5.53s-.49-.23-.49-.53.21-.51.49-.51.5.21.5.51Z"/>
            <path class="cls-6" d="M178.27,137.58c-2.95,0-5.35-2.4-5.35-5.35s2.4-5.35,5.35-5.35,5.35,2.4,5.35,5.35-2.4,5.35-5.35,5.35ZM178.27,127.4c-2.67,0-4.83,2.17-4.83,4.83s2.17,4.83,4.83,4.83,4.83-2.17,4.83-4.83-2.17-4.83-4.83-4.83Z"/>
          </g>
          <g>
            <path class="cls-6" d="M194.86,137.39c-2.88,0-5.22-2.34-5.22-5.22s2.34-5.22,5.22-5.22,5.22,2.34,5.22,5.22-2.34,5.22-5.22,5.22ZM194.86,127.45c-2.6,0-4.71,2.12-4.71,4.71s2.12,4.71,4.71,4.71,4.71-2.11,4.71-4.71-2.12-4.71-4.71-4.71Z"/>
            <g>
              <path class="cls-6" d="M194.11,132.93c-.82-.82-.82-2.16,0-2.98s2.16-.82,2.98,0c.82.82.82,2.16,0,2.98s-2.16.82-2.98,0ZM196.68,130.36c-.6-.6-1.57-.6-2.17,0-.6.6-.6,1.57,0,2.17s1.57.6,2.17,0c.6-.6.6-1.57,0-2.17Z"/>
              <rect class="cls-6" x="191.78" y="133.47" width="2.94" height=".57" transform="translate(-37.98 175.83) rotate(-45)"/>
            </g>
          </g>
        </g>
        <g>
          <path class="cls-6" d="M132.29,140.17c-4.48,0-8.12-3.64-8.12-8.12,0-3.01,1.65-5.76,4.31-7.17.62-.33,1.39-.09,1.71.53.33.62.09,1.39-.53,1.71-1.83.97-2.96,2.86-2.96,4.93,0,3.08,2.5,5.58,5.58,5.58s5.58-2.5,5.58-5.58c0-2.07-1.13-3.96-2.96-4.93-.62-.33-.85-1.1-.52-1.72.33-.62,1.1-.85,1.72-.52,2.66,1.42,4.31,4.16,4.31,7.17,0,4.48-3.64,8.12-8.12,8.12Z"/>
          <path class="cls-6" d="M132.29,130.53c-.7,0-1.27-.57-1.27-1.27v-4.82c0-.7.57-1.27,1.27-1.27s1.27.57,1.27,1.27v4.82c0,.7-.57,1.27-1.27,1.27Z"/>
        </g>
      </g>
      <g>
        <rect class="cls-2" x="107.12" y="158.54" width="106.38" height="69.34"/>
        <text class="cls-5" transform="translate(116.88 181.27)"><tspan class="cls-18" x="0" y="0">Q</tspan><tspan class="cls-20" x="8.3" y="0">uisque</tspan></text>
        <text class="cls-4" transform="translate(118.71 209.03)"><tspan x="0" y="0">234</tspan></text>
        <text class="cls-8" transform="translate(116.88 169.55)"><tspan x="0" y="0">nascetur ridiculus</tspan></text>
        <text class="cls-11" transform="translate(168.17 205.89)"><tspan class="cls-21" x="0" y="0">+</tspan><tspan class="cls-13" x="5.12" y="0">56%</tspan></text>
        <rect class="cls-12" x="209.38" y="158.54" width="4.12" height="69.34"/>
      </g>
      <g>
        <rect class="cls-2" x="107.12" y="236.21" width="106.38" height="69.34"/>
        <text class="cls-5" transform="translate(116.88 258.94)"><tspan class="cls-3" x="0" y="0">I</tspan><tspan class="cls-25" x="2.99" y="0">n</tspan><tspan class="cls-1" x="9.6" y="0">t</tspan><tspan x="13.5" y="0">e</tspan><tspan class="cls-24" x="19.51" y="0">r</tspan><tspan x="23.32" y="0">dum</tspan></text>
        <text class="cls-4" transform="translate(118.71 286.7)"><tspan x="0" y="0">574</tspan></text>
        <text class="cls-8" transform="translate(116.88 247.22)"><tspan x="0" y="0">nascetur ridiculus</tspan></text>
        <text class="cls-11" transform="translate(168.17 283.56)"><tspan class="cls-21" x="0" y="0">+</tspan><tspan class="cls-13" x="5.12" y="0">21%</tspan></text>
        <rect class="cls-12" x="209.38" y="236.21" width="4.12" height="69.34"/>
      </g>
      <g>
        <rect class="cls-2" x="107.12" y="314.12" width="106.38" height="69.34"/>
        <rect class="cls-12" x="209.38" y="314.12" width="4.12" height="69.34"/>
        <text class="cls-5" transform="translate(116.88 336.85)"><tspan class="cls-17" x="0" y="0">F</tspan><tspan x="5.53" y="0">inibus</tspan></text>
        <text class="cls-4" transform="translate(118.71 364.62)"><tspan x="0" y="0">132</tspan></text>
        <text class="cls-8" transform="translate(116.88 325.13)"><tspan x="0" y="0">nascetur ridiculus</tspan></text>
        <text class="cls-11" transform="translate(169.1 361.48)"><tspan class="cls-22" x="0" y="0">-</tspan><tspan class="cls-13" x="3.26" y="0">14%</tspan></text>
      </g>
      <g>
        <g>
          <rect class="cls-6" x="70.08" y="81.75" width="24.67" height="24.67"/>
          <g>
            <rect class="cls-12" x="74.97" y="88.09" width="15" height="2.13"/>
            <rect class="cls-12" x="74.97" y="92.93" width="15" height="2.14"/>
            <rect class="cls-12" x="74.97" y="97.77" width="15" height="2.13"/>
          </g>
        </g>
        <g>
          <g>
            <rect class="cls-6" x="70.08" y="123.58" width="24.67" height="24.67"/>
            <g>
              <path class="cls-12" d="M90.34,139.29h-1.85c0-1.54-.55-3.04-1.55-4.22l1.41-1.19c1.28,1.51,1.99,3.43,1.99,5.41Z"/>
              <path class="cls-12" d="M75.45,139.29h-1.85c0-4.61,3.75-8.37,8.37-8.37,1.66,0,3.27.49,4.65,1.41l-1.03,1.53c-1.07-.72-2.33-1.1-3.62-1.1-3.6,0-6.52,2.92-6.52,6.52Z"/>
              <path class="cls-12" d="M81.2,138.79l6.8-9.12c.06-.08.17-.1.25-.04.07.05.09.16.05.23l-5.55,9.92c-.25.45-.81.61-1.26.36s-.61-.81-.36-1.26c.02-.03.04-.07.07-.1Z"/>
            </g>
            <g>
              <path class="cls-6" d="M82.1,174.34c-3.53,0-6.4-2.87-6.4-6.4s2.87-6.4,6.4-6.4,6.4,2.87,6.4,6.4-2.87,6.4-6.4,6.4ZM82.1,163.38c-2.51,0-4.56,2.04-4.56,4.56s2.04,4.56,4.56,4.56,4.56-2.04,4.56-4.56-2.04-4.56-4.56-4.56Z"/>
              <rect class="cls-6" x="81.18" y="160.64" width="1.85" height="3.58"/>
              <rect class="cls-6" x="74.61" y="166.94" width="3.58" height="1.85"/>
              <rect class="cls-6" x="80.92" y="171.77" width="1.85" height="3.58"/>
              <rect class="cls-6" x="85.75" y="167.2" width="3.58" height="1.85"/>
            </g>
            <g>
              <rect class="cls-6" x="77.14" y="200.67" width="2.54" height="5.03"/>
              <rect class="cls-6" x="80.7" y="198.73" width="2.54" height="6.97"/>
              <rect class="cls-6" x="84.26" y="196.42" width="2.54" height="9.27"/>
            </g>
            <g>
              <path class="cls-6" d="M81.97,238.63c-2.48,0-4.51-2.02-4.51-4.51s2.02-4.51,4.51-4.51,4.51,2.02,4.51,4.51-2.02,4.51-4.51,4.51ZM81.97,231.46c-1.47,0-2.66,1.19-2.66,2.66s1.19,2.66,2.66,2.66,2.66-1.19,2.66-2.66-1.19-2.66-2.66-2.66Z"/>
              <g>
                <rect class="cls-6" x="80.39" y="228.22" width="3.17" height="3.14"/>
                <rect class="cls-6" x="77.32" y="229.49" width="3.17" height="3.14" transform="translate(-140.28 123.48) rotate(-45)"/>
                <rect class="cls-6" x="76.06" y="232.54" width="3.14" height="3.17"/>
                <rect class="cls-6" x="77.34" y="235.6" width="3.14" height="3.17" transform="translate(-144.6 125.25) rotate(-45)"/>
                <rect class="cls-6" x="80.39" y="236.89" width="3.17" height="3.14"/>
                <rect class="cls-6" x="83.45" y="235.62" width="3.17" height="3.14" transform="translate(-142.81 129.6) rotate(-45)"/>
                <rect class="cls-6" x="84.74" y="232.54" width="3.14" height="3.17"/>
                <rect class="cls-6" x="83.47" y="229.47" width="3.14" height="3.17" transform="translate(-138.47 127.8) rotate(-45)"/>
              </g>
            </g>
            <g>
              <path class="cls-6" d="M88.93,271.78h-13.91v-9.19h13.91v9.19ZM76.86,269.94h10.22v-5.5h-10.22v5.5Z"/>
              <path class="cls-6" d="M82.01,267.73c-.64,0-1.26-.18-1.8-.51l-4.76-2.92.97-1.57,4.76,2.92c.5.31,1.17.31,1.67,0l4.76-2.92.97,1.57-4.76,2.92c-.54.33-1.17.51-1.8.51Z"/>
            </g>
            <g>
              <path class="cls-6" d="M81.66,306.31c-3.82,0-6.93-3.11-6.93-6.93s3.11-6.93,6.93-6.93,6.93,3.11,6.93,6.93-3.11,6.93-6.93,6.93ZM81.66,293.46c-3.26,0-5.91,2.65-5.91,5.91s2.65,5.91,5.91,5.91,5.91-2.65,5.91-5.91-2.65-5.91-5.91-5.91Z"/>
              <g>
                <g>
                  <path class="cls-6" d="M78.62,305.5c-2.07-3.89-2.07-8,0-12.2l.92.45c-1.94,3.94-1.94,7.63,0,11.26l-.91.48Z"/>
                  <path class="cls-6" d="M84.7,305.5l-.91-.48c1.93-3.64,1.93-7.32,0-11.26l.92-.45c2.06,4.2,2.06,8.3,0,12.2Z"/>
                </g>
                <rect class="cls-6" x="80.98" y="292.97" width="1.03" height="12.8"/>
              </g>
              <g>
                <g>
                  <path class="cls-6" d="M87.28,297.24c-3.94-1.94-7.62-1.94-11.26,0l-.48-.91c3.89-2.07,8-2.07,12.2,0l-.45.92Z"/>
                  <path class="cls-6" d="M81.52,303.97c-2.04,0-4.04-.52-5.99-1.55l.48-.91c3.64,1.93,7.32,1.93,11.26,0l.45.92c-2.1,1.03-4.17,1.55-6.21,1.55Z"/>
                </g>
                <rect class="cls-6" x="75.26" y="298.7" width="12.8" height="1.03"/>
              </g>
            </g>
          </g>
          <g>
            <rect class="cls-12" x="77.23" y="329.67" width="9.58" height="1.33" transform="translate(-209.56 154.75) rotate(-45)"/>
            <rect class="cls-12" x="77.23" y="329.67" width="9.58" height="1.33" transform="translate(-93.55 621.92) rotate(-135)"/>
          </g>
        </g>
      </g>
    </g>
  </g>
  <g>
    <g>
      <rect class="cls-9" x="272.73" y="62.59" width="183.08" height="373.49" rx="21.04" ry="21.04"/>
      <path class="cls-19" d="M445.52,83.63v331.41c0,5.92-4.82,10.74-10.74,10.74h-141.01c-5.93,0-10.74-4.81-10.74-10.74V83.62c0-5.93,4.81-10.73,10.74-10.73h26.27c.32,0,.65.02.96.07,2.45.32,4.6,1.86,5.67,4.14.85,1.82,2.19,3.3,3.81,4.34,1.63,1.03,3.54,1.61,5.55,1.61h56.5c4.01,0,7.65-2.32,9.36-5.95.6-1.28,1.55-2.34,2.7-3.07s2.51-1.14,3.93-1.14h26.26c5.91,0,10.74,4.83,10.74,10.74Z"/>
      <g>
        <path class="cls-23" d="M373.81,78.14h-24.81c-.89,0-1.61-.72-1.61-1.61h0c0-.89.72-1.61,1.61-1.61h24.81c.89,0,1.61.72,1.61,1.61h0c0,.89-.72,1.61-1.61,1.61Z"/>
        <path class="cls-23" d="M384.16,76.5c0,.85-.69,1.54-1.54,1.54s-1.54-.69-1.54-1.54.69-1.54,1.54-1.54,1.54.69,1.54,1.54Z"/>
      </g>
    </g>
    <path class="cls-2" d="M321,72.96v352.82h-27.23c-5.93,0-10.74-4.81-10.74-10.74V83.62c0-5.93,4.81-10.73,10.74-10.73h26.27c.32,0,.65.02.96.07Z"/>
    <g>
      <g>
        <rect class="cls-12" x="332.39" y="125" width="101.12" height="39"/>
        <rect class="cls-2" x="326.67" y="125" width="54.02" height="39"/>
        <g>
          <g>
            <path class="cls-6" d="M398.14,141.78c.89,0,1.47.43,1.47,1.23,0,1.14-1.13,1.21-1.13,2.16h-.72c0-1.16.98-1.18.98-2.01,0-.38-.28-.57-.69-.57-.44,0-.7.24-.73.72h-.74c.02-.96.61-1.52,1.55-1.52ZM398.6,146.38c0,.3-.21.53-.5.53s-.49-.23-.49-.53.21-.51.49-.51.5.21.5.51Z"/>
            <path class="cls-6" d="M398.19,149.58c-2.95,0-5.35-2.4-5.35-5.35s2.4-5.35,5.35-5.35,5.35,2.4,5.35,5.35-2.4,5.35-5.35,5.35ZM398.19,139.4c-2.67,0-4.83,2.17-4.83,4.83s2.17,4.83,4.83,4.83,4.83-2.17,4.83-4.83-2.17-4.83-4.83-4.83Z"/>
          </g>
          <g>
            <path class="cls-6" d="M414.78,149.39c-2.88,0-5.22-2.34-5.22-5.22s2.34-5.22,5.22-5.22,5.22,2.34,5.22,5.22-2.34,5.22-5.22,5.22ZM414.78,139.45c-2.6,0-4.71,2.12-4.71,4.71s2.12,4.71,4.71,4.71,4.71-2.11,4.71-4.71-2.12-4.71-4.71-4.71Z"/>
            <g>
              <path class="cls-6" d="M414.03,144.93c-.82-.82-.82-2.16,0-2.98.82-.82,2.16-.82,2.98,0s.82,2.16,0,2.98c-.82.82-2.16.82-2.98,0ZM416.61,142.36c-.6-.6-1.57-.6-2.17,0-.6.6-.6,1.57,0,2.17.6.6,1.57.6,2.17,0s.6-1.57,0-2.17Z"/>
              <rect class="cls-6" x="411.71" y="145.47" width="2.94" height=".57" transform="translate(17.95 334.85) rotate(-45)"/>
            </g>
          </g>
        </g>
        <g>
          <path class="cls-6" d="M352.21,152.17c-4.48,0-8.12-3.64-8.12-8.12,0-3.01,1.65-5.76,4.31-7.17.62-.33,1.39-.09,1.71.53.33.62.09,1.39-.53,1.71-1.83.97-2.96,2.86-2.96,4.93,0,3.08,2.5,5.58,5.58,5.58s5.58-2.5,5.58-5.58c0-2.07-1.13-3.96-2.96-4.93-.62-.33-.85-1.1-.52-1.72.33-.62,1.1-.85,1.72-.52,2.66,1.42,4.31,4.16,4.31,7.17,0,4.48-3.64,8.12-8.12,8.12Z"/>
          <path class="cls-6" d="M352.21,142.53c-.7,0-1.27-.57-1.27-1.27v-4.82c0-.7.57-1.27,1.27-1.27s1.27.57,1.27,1.27v4.82c0,.7-.57,1.27-1.27,1.27Z"/>
        </g>
      </g>
      <g>
        <rect class="cls-6" x="424.11" y="402.08" width="1.7" height="7" transform="translate(1012.25 391.88) rotate(135)"/>
        <rect class="cls-6" x="424.11" y="405.83" width="1.7" height="7" transform="translate(436.02 999.27) rotate(-135)"/>
      </g>
      <g>
        <g>
          <path class="cls-14" d="M434.21,82.97h-6.48c-.1,0-.17-.08-.17-.17v-3.04c0-.1.08-.17.17-.17h6.48c.1,0,.17.08.17.17v3.04c0,.1-.08.17-.17.17ZM427.91,82.63h6.13v-2.69h-6.13v2.69Z"/>
          <rect class="cls-14" x="428.15" y="80.2" width="4.38" height="2.16"/>
          <rect class="cls-14" x="434.27" y="80.55" width=".42" height="1.45"/>
        </g>
        <g>
          <path class="cls-14" d="M422.47,82c0,.54-.43.97-.97.97s-.97-.43-.97-.97.43-.97.97-.97.97.43.97.97Z"/>
          <path class="cls-14" d="M422.75,81.06c-.08,0-.16-.03-.22-.09-.2-.19-.54-.43-1.03-.43-.38,0-.74.15-1.02.42-.12.12-.32.12-.44,0-.12-.12-.12-.32,0-.44.79-.77,2.12-.77,2.92,0,.12.12.13.32,0,.44-.06.06-.14.09-.22.09Z"/>
          <path class="cls-14" d="M423.5,80.3c-.08,0-.16-.03-.22-.09-.47-.48-1.1-.74-1.78-.74s-1.3.26-1.77.73c-.12.12-.32.12-.44,0-.12-.12-.12-.32,0-.44.59-.59,1.38-.91,2.21-.91s1.64.33,2.22.92c.12.12.12.32,0,.44-.06.06-.14.09-.22.09Z"/>
        </g>
        <g>
          <rect class="cls-14" x="409.31" y="80.62" width="1.48" height="2.35"/>
          <rect class="cls-14" x="411.14" y="79.73" width="1.48" height="3.24"/>
          <rect class="cls-14" x="412.98" y="78.92" width="1.48" height="4.05"/>
        </g>
      </g>
      <g>
        <g>
          <rect class="cls-2" x="327.12" y="171.52" width="106.38" height="69.34"/>
          <rect class="cls-12" x="429.38" y="171.52" width="4.12" height="69.34"/>
        </g>
        <path class="cls-16" d="M335.67,224.33s7.33-16.33,22.17-16.33,16.33,12,30.83,3.17c14.5-8.83,9-20.5,30.67-22"/>
        <text class="cls-4" transform="translate(334.87 192.01)"><tspan x="0" y="0">234</tspan></text>
        <text class="cls-11" transform="translate(400.84 232.2)"><tspan class="cls-21" x="0" y="0">+</tspan><tspan class="cls-13" x="5.12" y="0">56%</tspan></text>
      </g>
      <g>
        <g>
          <rect class="cls-2" x="327.12" y="247.52" width="106.38" height="69.34"/>
          <rect class="cls-12" x="429.38" y="247.52" width="4.12" height="69.34"/>
        </g>
        <path class="cls-16" d="M335.67,300.33s7.33-3.54,22.17-3.54,16.33,5.21,30.83-3.62c14.5-8.83,9-18,30.67-19.5"/>
        <text class="cls-4" transform="translate(334.87 268.01)"><tspan x="0" y="0">574</tspan></text>
        <text class="cls-11" transform="translate(400.84 308.2)"><tspan class="cls-21" x="0" y="0">+</tspan><tspan class="cls-13" x="5.12" y="0">21%</tspan></text>
      </g>
      <g>
        <g>
          <rect class="cls-2" x="327.12" y="323.52" width="106.38" height="69.34"/>
          <rect class="cls-12" x="429.38" y="323.52" width="4.12" height="69.34"/>
        </g>
        <path class="cls-16" d="M335.67,376.33s7.33-16.33,22.17-16.33,16.33,2.5,30.83-6.33c14.5-8.83,5.96,22,27.62,20.5"/>
        <text class="cls-4" transform="translate(334.87 344.01)"><tspan x="0" y="0">132</tspan></text>
        <text class="cls-11" transform="translate(401.77 384.2)"><tspan class="cls-22" x="0" y="0">-</tspan><tspan class="cls-13" x="3.26" y="0">14%</tspan></text>
      </g>
      <g>
        <rect class="cls-2" x="327.12" y="90.5" width="106.38" height="22.04"/>
        <rect class="cls-12" x="327.12" y="111.83" width="106.38" height="5.5"/>
        <text class="cls-10" transform="translate(363.67 104.04)"><tspan x="0" y="0">Pellentesque ipsum</tspan></text>
        <g>
          <rect class="cls-6" x="342.03" y="98.98" width="1.29" height="5.3" transform="translate(513.12 415.79) rotate(-135)"/>
          <rect class="cls-6" x="339.2" y="98.98" width="1.29" height="5.3" transform="translate(27.68 270.07) rotate(-45)"/>
        </g>
      </g>
      <g>
        <g>
          <rect class="cls-6" x="290.08" y="81.75" width="24.67" height="24.67"/>
          <g>
            <rect class="cls-12" x="294.97" y="88.09" width="15" height="2.13"/>
            <rect class="cls-12" x="294.97" y="92.93" width="15" height="2.14"/>
            <rect class="cls-12" x="294.97" y="97.77" width="15" height="2.13"/>
          </g>
        </g>
        <g>
          <g>
            <rect class="cls-12" x="297.23" y="329.67" width="9.58" height="1.33" transform="translate(-145.12 310.31) rotate(-45)"/>
            <rect class="cls-12" x="297.23" y="329.67" width="9.58" height="1.33" transform="translate(282.01 777.48) rotate(-135)"/>
          </g>
          <g>
            <rect class="cls-6" x="290.75" y="123.58" width="24.67" height="24.67"/>
            <g>
              <path class="cls-12" d="M310.34,139.29h-1.85c0-1.54-.55-3.04-1.55-4.22l1.41-1.19c1.28,1.51,1.99,3.43,1.99,5.41Z"/>
              <path class="cls-12" d="M295.45,139.29h-1.85c0-4.61,3.75-8.37,8.37-8.37,1.66,0,3.27.49,4.65,1.41l-1.03,1.53c-1.07-.72-2.33-1.1-3.62-1.1-3.6,0-6.52,2.92-6.52,6.52Z"/>
              <path class="cls-12" d="M301.2,138.79l6.8-9.12c.06-.08.17-.1.25-.04.07.05.09.16.05.23l-5.55,9.92c-.25.45-.81.61-1.26.36s-.61-.81-.36-1.26c.02-.03.04-.07.07-.1Z"/>
            </g>
            <g>
              <path class="cls-6" d="M302.1,174.34c-3.53,0-6.4-2.87-6.4-6.4s2.87-6.4,6.4-6.4,6.4,2.87,6.4,6.4-2.87,6.4-6.4,6.4ZM302.1,163.38c-2.51,0-4.56,2.04-4.56,4.56s2.04,4.56,4.56,4.56,4.56-2.04,4.56-4.56-2.04-4.56-4.56-4.56Z"/>
              <rect class="cls-6" x="301.18" y="160.64" width="1.85" height="3.58"/>
              <rect class="cls-6" x="294.61" y="166.94" width="3.58" height="1.85"/>
              <rect class="cls-6" x="300.92" y="171.77" width="1.85" height="3.58"/>
              <rect class="cls-6" x="305.75" y="167.2" width="3.58" height="1.85"/>
            </g>
            <g>
              <rect class="cls-6" x="297.14" y="200.67" width="2.54" height="5.03"/>
              <rect class="cls-6" x="300.7" y="198.73" width="2.54" height="6.97"/>
              <rect class="cls-6" x="304.26" y="196.42" width="2.54" height="9.27"/>
            </g>
            <g>
              <path class="cls-6" d="M301.97,238.63c-2.48,0-4.51-2.02-4.51-4.51s2.02-4.51,4.51-4.51,4.51,2.02,4.51,4.51-2.02,4.51-4.51,4.51ZM301.97,231.46c-1.47,0-2.66,1.19-2.66,2.66s1.19,2.66,2.66,2.66,2.66-1.19,2.66-2.66-1.19-2.66-2.66-2.66Z"/>
              <g>
                <rect class="cls-6" x="300.39" y="228.22" width="3.17" height="3.14"/>
                <rect class="cls-6" x="297.32" y="229.49" width="3.17" height="3.14" transform="translate(-75.83 279.06) rotate(-45)"/>
                <rect class="cls-6" x="296.07" y="232.54" width="3.14" height="3.17"/>
                <rect class="cls-6" x="297.34" y="235.6" width="3.14" height="3.17" transform="translate(-80.17 280.81) rotate(-45)"/>
                <rect class="cls-6" x="300.39" y="236.89" width="3.17" height="3.14"/>
                <rect class="cls-6" x="303.45" y="235.62" width="3.17" height="3.14" transform="translate(-78.37 285.16) rotate(-45)"/>
                <rect class="cls-6" x="304.74" y="232.54" width="3.14" height="3.17"/>
                <rect class="cls-6" x="303.47" y="229.47" width="3.14" height="3.17" transform="translate(-74.04 283.37) rotate(-45)"/>
              </g>
            </g>
            <g>
              <path class="cls-6" d="M308.93,271.78h-13.91v-9.19h13.91v9.19ZM296.86,269.94h10.22v-5.5h-10.22v5.5Z"/>
              <path class="cls-6" d="M302.01,267.73c-.64,0-1.26-.18-1.8-.51l-4.76-2.92.97-1.57,4.76,2.92c.5.31,1.17.31,1.67,0l4.76-2.92.97,1.57-4.76,2.92c-.54.33-1.17.51-1.8.51Z"/>
            </g>
            <g>
              <path class="cls-6" d="M301.66,306.31c-3.82,0-6.93-3.11-6.93-6.93s3.11-6.93,6.93-6.93,6.93,3.11,6.93,6.93-3.11,6.93-6.93,6.93ZM301.66,293.46c-3.26,0-5.91,2.65-5.91,5.91s2.65,5.91,5.91,5.91,5.91-2.65,5.91-5.91-2.65-5.91-5.91-5.91Z"/>
              <g>
                <g>
                  <path class="cls-6" d="M298.62,305.5c-2.07-3.89-2.07-8,0-12.2l.92.45c-1.94,3.94-1.94,7.63,0,11.26l-.91.48Z"/>
                  <path class="cls-6" d="M304.7,305.5l-.91-.48c1.93-3.64,1.93-7.32,0-11.26l.92-.45c2.06,4.2,2.06,8.3,0,12.2Z"/>
                </g>
                <rect class="cls-6" x="300.98" y="292.97" width="1.03" height="12.8"/>
              </g>
              <g>
                <g>
                  <path class="cls-6" d="M307.28,297.24c-3.94-1.94-7.62-1.94-11.26,0l-.48-.91c3.89-2.07,8-2.07,12.2,0l-.45.92Z"/>
                  <path class="cls-6" d="M301.52,303.97c-2.04,0-4.04-.52-5.99-1.55l.48-.91c3.64,1.93,7.32,1.93,11.26,0l.45.92c-2.1,1.03-4.17,1.55-6.21,1.55Z"/>
                </g>
                <rect class="cls-6" x="295.26" y="298.7" width="12.8" height="1.03"/>
              </g>
            </g>
          </g>
        </g>
      </g>
    </g>
  </g>
</svg>